<?xml version="1.0" encoding="UTF-8" standalone="no"?>
<svg xmlns:sketch="http://www.bohemiancoding.com/sketch/ns" xmlns="http://www.w3.org/2000/svg" height="128px" width="128px" version="1.1" xmlns:xlink="http://www.w3.org/1999/xlink" viewBox="0 0 128 128"><!-- Generator: Sketch 3.5.2 (25235) - http://www.bohemiancoding.com/sketch -->
 <title>logo</title>
 <desc>Created with Sketch.</desc>
 <defs>
  <filter id="filter-1" height="200%" width="200%" y="-50%" x="-50%" filterUnits="objectBoundingBox">
   <feOffset in="SourceAlpha" result="shadowOffsetOuter1" dx="0" dy="2"/>
   <feGaussianBlur stdDeviation="4" result="shadowBlurOuter1" in="shadowOffsetOuter1"/>
   <feColorMatrix type="matrix" values="0 0 0 0 0   0 0 0 0 0   0 0 0 0 0  0 0 0 0.35 0" result="shadowMatrixOuter1" in="shadowBlurOuter1"/>
   <feOffset in="SourceAlpha" result="shadowOffsetInner1" dx="0" dy="1"/>
   <feGaussianBlur stdDeviation="1.5" result="shadowBlurInner1" in="shadowOffsetInner1"/>
   <feComposite in2="SourceAlpha" k3="1" k2="-1" result="shadowInnerInner1" in="shadowBlurInner1" operator="arithmetic"/>
   <feColorMatrix type="matrix" values="0 0 0 0 0   0 0 0 0 0   0 0 0 0 0  0 0 0 0.35 0" result="shadowMatrixInner1" in="shadowInnerInner1"/>
   <feMerge>
    <feMergeNode in="shadowMatrixOuter1"/>
    <feMergeNode in="SourceGraphic"/>
    <feMergeNode in="shadowMatrixInner1"/>
   </feMerge>
  </filter>
  <filter id="filter-2" height="200%" width="200%" y="-50%" x="-50%" filterUnits="objectBoundingBox">
   <feOffset in="SourceAlpha" result="shadowOffsetOuter1" dx="0" dy="2"/>
   <feGaussianBlur stdDeviation="4" result="shadowBlurOuter1" in="shadowOffsetOuter1"/>
   <feColorMatrix type="matrix" values="0 0 0 0 0   0 0 0 0 0   0 0 0 0 0  0 0 0 0.35 0" result="shadowMatrixOuter1" in="shadowBlurOuter1"/>
   <feOffset in="SourceAlpha" result="shadowOffsetInner1" dx="0" dy="1"/>
   <feGaussianBlur stdDeviation="1.5" result="shadowBlurInner1" in="shadowOffsetInner1"/>
   <feComposite in2="SourceAlpha" k3="1" k2="-1" result="shadowInnerInner1" in="shadowBlurInner1" operator="arithmetic"/>
   <feColorMatrix type="matrix" values="0 0 0 0 0   0 0 0 0 0   0 0 0 0 0  0 0 0 0.35 0" result="shadowMatrixInner1" in="shadowInnerInner1"/>
   <feMerge>
    <feMergeNode in="shadowMatrixOuter1"/>
    <feMergeNode in="SourceGraphic"/>
    <feMergeNode in="shadowMatrixInner1"/>
   </feMerge>
  </filter>
 </defs>
 <g id="Page-1" fill-rule="evenodd" sketch:type="MSPage" fill="none">
  <g id="logo" sketch:type="MSArtboardGroup">
   <text id="The" opacity=".5" font-size="18" sketch:type="MSTextLayer" font-family="Arial Rounded MT Bold" fill="#806840">
    <tspan y="56" x="5">The</tspan>
    <tspan y="77" x="5">Third</tspan>
    <tspan y="98" x="5">Pen</tspan>
   </text>
   <text id="Freelance-Work-on" font-size="8" font-family="Times" sketch:type="MSTextLayer" fill="#9B9B9B">
    <tspan y="14" x="5">Freelance Work on</tspan>
    <tspan y="24" x="5">Programming</tspan>
    <tspan y="34" x="5">and Geek GAE</tspan>
   </text>
   <path id="icn" sketch:type="MSShapeGroup" stroke="#979797" fill="#9B9B9B" d="m98.289 2.1985c-4.93-1.3728-7.086 0.0462-7.086 0.0462l-4.681 8.8293-7.152 0.665 3.605 1.794 1.835 3.091-0.356 2.419-1.281 0.894 1.022 1.688 0.661 2.262 0.94 0.742-0.111 1.093-2.379 4.009-8.208 5.363-14.16 9.367-1.215 2.337-1.361 5.108-0.661 7.888-0.701 19.91 0.981 6.843 1.052 7.607-0.31 4.423 1.058 2.663-0.117 3.71 0.666 2.43 1.373 2.22 1.927 3.08 3.436 0.63-1.006 13.24 60.24-91.627-0.75-5.499-6.67-2.261-15.21-1.403-1.56-1.84 1.05-3.085 1.44-2.226s3.1 4.954 0.31-2.314c-0.87-2.269 7.22-2.869 8.18-3.427 2.13-1.231-0.71 0-0.71 0l-7.25-2.572 1.16-5.1944-0.15-4.1016-4.31 0.6657s1.39 1.9055-3.541 0.5328z"/>
   <g id="Pen" fill-opacity=".5" stroke="#979797" transform="translate(65 34)" sketch:type="MSLayerGroup">
    <ellipse id="Oval-1-Copy" ry="54.918" rx="2.1754" transform="translate(32.039 48.025) rotate(33) translate(-32.039 -48.025)" sketch:type="MSShapeGroup" filter="url(#filter-1)" cy="48.025" cx="32.039"/>
    <ellipse id="Oval-1" ry="54.918" rx="2.1754" transform="translate(32.039 48.025) rotate(33) translate(-32.039 -48.025)" sketch:type="MSShapeGroup" filter="url(#filter-2)" cy="48.025" cx="32.039"/>
   </g>
  </g>
 </g>
</svg>
