<?xml version="1.0" encoding="UTF-8" standalone="no"?>
<svg xmlns:sketch="http://www.bohemiancoding.com/sketch/ns" xmlns="http://www.w3.org/2000/svg" height="64px" width="64px" version="1.1" xmlns:xlink="http://www.w3.org/1999/xlink" viewBox="0 0 64 64"><!-- Generator: Sketch 3.5.2 (25235) - http://www.bohemiancoding.com/sketch -->
 <title>icon</title>
 <desc>Created with Sketch.</desc>
 <g id="Page-1" fill-rule="evenodd" sketch:type="MSPage" fill="none">
  <g id="icon" fill="#806940" sketch:type="MSArtboardGroup">
   <path id="pen-copy" opacity=".34369" sketch:type="MSShapeGroup" d="m26.178 53.886c1.73-0.023 3.508-0.035 5.322-0.035 17.397 0 31.5 1.109 31.5 2.478 0 1.368-14.103 2.477-31.5 2.477-2.796 0-5.507-0.029-8.088-0.082-2.038 3.458-3.37 5.413-3.657 5.267-0.266-0.136 0.408-2.075 1.792-5.311-12.519-0.328-21.547-1.257-21.547-2.351 0-1.156 10.057-2.127 23.662-2.401 2.7-5.895 6.585-13.887 11.035-22.62 9.002-17.668 16.908-31.681 17.659-31.299 0.75 0.38233-5.939 15.015-14.942 32.683-4.185 8.215-8.134 15.639-11.236 21.194z"/>
   <path id="T-P" opacity="0.54" sketch:type="MSShapeGroup" d="m33.78 22.682h-7.594l-3.691 26.318h-5.151l3.692-26.318h-7.506l0.756-5.272h20.25l-0.756 5.272zm13.922 15.188l-1.582 11.13h-5.151l4.448-31.59 9.369 0.022c1.23 0.029 2.367 0.285 3.41 0.77 1.043 0.484 1.937 1.164 2.681 2.039s1.306 1.942 1.687 3.201c0.381 1.258 0.519 2.675 0.413 4.252-0.105 1.736-0.466 3.24-1.081 4.513s-1.397 2.332-2.346 3.178c-0.95 0.847-2.028 1.476-3.235 1.888s-2.461 0.618-3.762 0.618l-4.851-0.021zm0.721-5.273l4.289 0.044c0.644 0 1.254-0.105 1.828-0.315 0.574-0.209 1.084-0.517 1.529-0.922s0.82-0.911 1.125-1.519c0.305-0.607 0.504-1.323 0.598-2.148 0.082-0.708 0.079-1.363-0.009-1.963s-0.264-1.121-0.527-1.562c-0.264-0.441-0.61-0.796-1.038-1.063-0.427-0.268-0.94-0.416-1.538-0.445l-4.851-0.022-1.406 9.915z"/>
  </g>
 </g>
</svg>
